<?xml version="1.0" encoding="utf-8"?>
<!-- Generator: Adobe Illustrator 16.0.0, SVG Export Plug-In . SVG Version: 6.00 Build 0)  -->
<!DOCTYPE svg PUBLIC "-//W3C//DTD SVG 1.1//EN" "http://www.w3.org/Graphics/SVG/1.1/DTD/svg11.dtd">
<svg version="1.1" id="Calque_1" xmlns="http://www.w3.org/2000/svg" xmlns:xlink="http://www.w3.org/1999/xlink" x="0px" y="0px"
	 width="724.89px" height="595.28px" viewBox="0 0 724.89 595.28" enable-background="new 0 0 724.89 595.28" xml:space="preserve">
<path fill-rule="evenodd" clip-rule="evenodd" fill="#C6C6C6" d="M283.722,6.091c13.789,0,27.578,0,41.367,0
	c0.935,1.437,2.451,0.831,3.688,0.938c53.712,4.666,102.859,22.14,146.337,54.036c68.389,50.172,108.311,117.552,119.555,201.779
	c0.666,4.992,0.229,10.155,2.144,14.969c0,13.789,0,27.578,0,41.367c-1.39,0.763-0.863,2.158-0.967,3.263
	c-1.078,11.438-2.62,22.808-4.871,34.073c-24.98,125.005-130.984,220.309-258.167,232.207c-2.571,0.24-5.354-0.231-7.718,1.368
	c-8.382,0-16.763,0-25.145,0c0.998-1.095,1.952-2.232,2.999-3.278c54.66-54.633,109.327-109.257,163.994-163.882
	c0.05-1.214,0.143-2.428,0.143-3.64c0.007-81.471-0.018-162.941,0.091-244.411c0.004-3.492-1.039-4.124-4.295-4.121
	c-105.52,0.088-211.039,0.071-316.558,0.097c-1.294,0-2.707-0.485-3.888,0.519c-0.543,0.386-1.156,0.703-1.62,1.167
	c-15.934,15.961-31.851,31.94-47.778,47.909c-14.306,14.342-28.602,28.694-42.938,43.007
	c-12.401,12.381-24.853,24.713-37.283,37.065c0-7.841,0-15.681,0-23.522c1.412-0.745,0.889-2.146,0.991-3.25
	c1.058-11.44,2.594-22.813,4.864-34.075C43.909,114.424,149.559,19.438,276.834,7.456C279.126,7.24,281.694,7.852,283.722,6.091z"/>
<path fill-rule="evenodd" clip-rule="evenodd" fill="#777777" d="M466.937,422.932c-54.667,54.625-109.334,109.249-163.994,163.882
	c-1.046,1.046-2.001,2.184-2.999,3.278c-5.407,0-10.815,0-16.222,0c-0.722-1.456-2.131-0.891-3.226-0.985
	c-21.537-1.852-42.644-5.924-63.24-12.467c-52.36-16.636-96.727-45.634-132.722-87.096c-38.935-44.85-62.067-96.885-69.517-155.879
	c-0.61-4.829,0.046-9.896-2.208-14.484c0-6.219,0-12.438,0-18.656c12.43-12.353,24.881-24.684,37.283-37.065
	c14.336-14.313,28.632-28.665,42.938-43.007c15.927-15.969,31.844-31.948,47.778-47.909c0.464-0.465,1.077-0.782,1.621-1.166
	c0.041,1.621,0.119,3.241,0.119,4.859c-0.005,80.698,0.006,161.395-0.106,242.093c-0.005,3.573,0.728,4.681,4.543,4.669
	c51.365-0.152,102.73-0.125,154.096-0.12C356.366,422.885,411.651,422.913,466.937,422.932z"/>
<path fill-rule="evenodd" clip-rule="evenodd" fill="#FDFEFE" d="M466.937,422.932c-55.285-0.019-110.57-0.047-165.855-0.053
	c-51.365-0.005-102.731-0.032-154.096,0.12c-3.815,0.012-4.548-1.096-4.543-4.669c0.112-80.698,0.101-161.396,0.106-242.093
	c0-1.619-0.078-3.239-0.119-4.859c1.181-1.005,2.593-0.521,3.887-0.521c105.519-0.026,211.038-0.009,316.558-0.097
	c3.256-0.003,4.299,0.628,4.295,4.121c-0.108,81.47-0.084,162.94-0.091,244.411C467.079,420.504,466.986,421.718,466.937,422.932z
	 M304.832,389.571c0,0.008,0,0.016,0,0.023c41.894,0,83.788-0.042,125.683,0.082c3.333,0.01,4.246-0.761,4.24-4.157
	c-0.108-59.192-0.109-118.385,0.005-177.577c0.007-3.32-1.005-3.912-4.056-3.909c-83.923,0.08-167.847,0.079-251.77,0.002
	c-3.029-0.002-4.072,0.554-4.065,3.898c0.122,59.192,0.125,118.384,0.02,177.576c-0.006,3.424,0.951,4.152,4.261,4.143
	C221.043,389.53,262.938,389.571,304.832,389.571z"/>
<path fill-rule="evenodd" clip-rule="evenodd" fill="#777777" d="M304.832,389.571c-41.894,0-83.789-0.041-125.683,0.08
	c-3.31,0.01-4.267-0.719-4.261-4.143c0.105-59.191,0.102-118.384-0.02-177.576c-0.007-3.344,1.037-3.9,4.065-3.898
	c83.923,0.077,167.847,0.078,251.77-0.002c3.051-0.003,4.063,0.589,4.056,3.909c-0.114,59.192-0.113,118.385-0.005,177.577
	c0.006,3.396-0.907,4.167-4.24,4.157c-41.895-0.124-83.789-0.082-125.683-0.082C304.832,389.587,304.832,389.579,304.832,389.571z
	 M404.283,354.521c-22.604-33.506-44.83-66.451-67.209-99.624c-12.522,17.739-24.842,35.114-37.047,52.568
	c-1.667,2.384-2.589,3.416-5.135,0.699c-4.981-5.318-10.529-10.102-15.59-15.351c-2.217-2.299-3.422-2.162-5.582,0.117
	c-18.771,19.808-37.675,39.491-56.517,59.231c-0.588,0.616-1.645,0.997-1.459,2.358C278.34,354.521,340.927,354.521,404.283,354.521
	z M238.631,227.468c-13.706-0.016-24.681,10.941-24.66,24.62c0.02,13.561,11.308,24.797,24.768,24.659
	c13.342-0.139,24.44-11.241,24.553-24.564C263.406,238.667,252.248,227.483,238.631,227.468z"/>
<path fill-rule="evenodd" clip-rule="evenodd" fill="#FDFEFE" d="M404.283,354.521c-63.356,0-125.943,0-188.539,0
	c-0.186-1.361,0.871-1.742,1.459-2.358c18.842-19.74,37.747-39.424,56.517-59.231c2.16-2.279,3.365-2.417,5.582-0.117
	c5.061,5.249,10.609,10.032,15.59,15.351c2.546,2.717,3.468,1.685,5.135-0.699c12.205-17.455,24.524-34.83,37.047-52.568
	C359.453,288.07,381.679,321.016,404.283,354.521z"/>
<path fill-rule="evenodd" clip-rule="evenodd" fill="#FDFEFE" d="M238.631,227.468c13.617,0.015,24.775,11.199,24.661,24.715
	c-0.113,13.323-11.211,24.425-24.553,24.564c-13.46,0.139-24.748-11.098-24.768-24.659
	C213.95,238.409,224.925,227.452,238.631,227.468z"/>
<circle fill-rule="evenodd" clip-rule="evenodd" fill="none" stroke="#D8D8D8" stroke-miterlimit="10" cx="304.812" cy="298.091" r="292.079"/>
</svg>
