<?xml version="1.0" encoding="utf-8"?>
<!-- Generator: Adobe Illustrator 16.0.0, SVG Export Plug-In . SVG Version: 6.00 Build 0)  -->
<!DOCTYPE svg PUBLIC "-//W3C//DTD SVG 1.1//EN" "http://www.w3.org/Graphics/SVG/1.1/DTD/svg11.dtd">
<svg version="1.1" id="Calque_1" xmlns="http://www.w3.org/2000/svg" xmlns:xlink="http://www.w3.org/1999/xlink" x="0px" y="0px"
	 width="610px" height="595.281px" viewBox="0 0 610 595.281" enable-background="new 0 0 610 595.281" xml:space="preserve">
<circle fill="#FDFEFE" cx="304.813" cy="298.091" r="260.001"/>
<path fill="#1C8ADA" d="M283.722,6.091c13.789,0,27.578,0,41.367,0c0.935,1.437,2.451,0.831,3.688,0.938
	c53.711,4.666,102.858,22.14,146.337,54.036c68.389,50.172,108.311,117.552,119.555,201.779c0.666,4.992,0.229,10.155,2.145,14.969
	c0,13.789,0,27.577,0,41.366c-1.391,0.764-0.863,2.158-0.968,3.264c-1.078,11.438-2.62,22.809-4.871,34.072
	c-24.979,125.006-130.983,220.311-258.166,232.207c-2.572,0.24-5.354-0.23-7.719,1.369c-8.382,0-16.763,0-25.145,0
	c0.998-1.096,1.952-2.232,2.999-3.277c54.66-54.635,109.328-109.258,163.995-163.883c0.05-1.215,0.143-2.428,0.143-3.641
	c0.007-81.471-0.018-162.94,0.091-244.411c0.004-3.492-1.039-4.124-4.295-4.121c-105.52,0.088-211.039,0.071-316.558,0.097
	c-1.294,0-2.707-0.485-3.888,0.519c-0.543,0.386-1.156,0.703-1.62,1.167c-15.934,15.961-31.851,31.94-47.778,47.909
	c-14.306,14.342-28.602,28.694-42.938,43.007c-12.401,12.381-24.853,24.713-37.283,37.065c0-7.841,0-15.681,0-23.522
	c1.412-0.745,0.889-2.146,0.991-3.25c1.058-11.44,2.594-22.813,4.864-34.075C43.909,114.424,149.559,19.438,276.834,7.456
	C279.126,7.24,281.694,7.852,283.722,6.091z"/>
<path fill="#115688" d="M466.937,422.931c-54.667,54.625-109.333,109.25-163.994,163.883c-1.046,1.047-2.001,2.184-2.999,3.277
	c-5.407,0-10.815,0-16.222,0c-0.722-1.455-2.131-0.891-3.226-0.984c-21.537-1.852-42.644-5.924-63.24-12.467
	c-52.36-16.637-96.727-45.635-132.722-87.096c-38.935-44.85-62.067-96.885-69.517-155.879c-0.61-4.83,0.046-9.896-2.208-14.484
	c0-6.219,0-12.438,0-18.656c12.43-12.353,24.881-24.684,37.283-37.065c14.336-14.313,28.632-28.665,42.938-43.007
	c15.927-15.969,31.844-31.948,47.778-47.909c0.464-0.465,1.077-0.782,1.621-1.166c0.041,1.621,0.119,3.241,0.119,4.859
	c-0.005,80.698,0.006,161.395-0.106,242.092c-0.005,3.574,0.728,4.682,4.543,4.67c51.365-0.152,102.73-0.125,154.096-0.121
	C356.366,422.884,411.65,422.914,466.937,422.931z"/>
<path fill="#115688" d="M300.165,389.572c-41.894,0-83.789-0.041-125.683,0.08c-3.31,0.01-4.267-0.721-4.261-4.145
	c0.105-59.189,0.102-118.383-0.02-177.575c-0.007-3.344,1.037-3.9,4.065-3.898c83.923,0.077,167.847,0.078,251.77-0.002
	c3.051-0.003,4.063,0.589,4.056,3.909c-0.114,59.192-0.112,118.385-0.005,177.576c0.006,3.396-0.907,4.168-4.24,4.158
	c-41.895-0.125-83.788-0.082-125.683-0.082C300.165,389.587,300.165,389.58,300.165,389.572z M399.616,354.521
	c-22.604-33.506-44.83-66.451-67.209-99.624c-12.522,17.739-24.843,35.114-37.047,52.567c-1.667,2.385-2.589,3.416-5.135,0.699
	c-4.981-5.318-10.529-10.102-15.59-15.351c-2.217-2.299-3.422-2.162-5.582,0.117c-18.771,19.808-37.675,39.491-56.517,59.231
	c-0.588,0.615-1.645,0.996-1.459,2.357C273.673,354.521,336.26,354.521,399.616,354.521z M233.964,227.468
	c-13.706-0.016-24.681,10.941-24.66,24.62c0.02,13.561,11.308,24.797,24.768,24.659c13.342-0.139,24.44-11.241,24.553-24.564
	C258.739,238.667,247.581,227.483,233.964,227.468z"/>
<circle fill="none" cx="304.812" cy="298.091" r="292.079"/>
</svg>
